<?xml version="1.0" encoding="UTF-8"?>
<svg id="Layer_1" data-name="Layer 1" xmlns="http://www.w3.org/2000/svg" width="380.92" height="193.83" viewBox="0 0 380.92 193.83">
  <defs>
    <style>
      .cls-1 {
        fill: #d52928;
      }

      .cls-2 {
        fill: #f3c94d;
      }

      .cls-3 {
        fill: #137547;
      }

      .cls-4 {
        fill: #f6f6f5;
      }
    </style>
  </defs>
  <path class="cls-1" d="M25.77,0h146.19v134.71H0V25.77C0,11.55,11.55,0,25.77,0Z"/>
  <path class="cls-3" d="M171.92,59.12h209v103.82c0,17.05-13.84,30.89-30.89,30.89h-178.11V59.12h0Z"/>
  <g>
    <path class="cls-4" d="M19.21,39.6h8.8l5.71,43.06h.16l5.71-43.06h8.01l-8.41,55.51h-11.58l-8.41-55.51Z"/>
    <path class="cls-4" d="M51.01,81.94v-29.18c0-8.88,4.68-13.96,13.24-13.96s13.24,5.08,13.24,13.96v29.18c0,8.88-4.68,13.96-13.24,13.96s-13.24-5.08-13.24-13.96ZM68.77,82.5v-30.29c0-3.96-1.74-5.47-4.52-5.47s-4.52,1.51-4.52,5.47v30.29c0,3.96,1.74,5.47,4.52,5.47s4.52-1.51,4.52-5.47Z"/>
    <path class="cls-4" d="M83.37,39.6h8.72v55.51h-8.72v-55.51Z"/>
    <path class="cls-4" d="M98.03,82.26v-29.82c0-8.56,4.44-13.64,12.85-13.64s12.85,5.08,12.85,13.64v5.87h-8.25v-6.42c0-3.65-1.74-5.15-4.36-5.15s-4.36,1.51-4.36,5.15v31.01c0,3.65,1.75,5.08,4.36,5.08s4.36-1.43,4.36-5.08v-8.48h8.25v7.85c0,8.56-4.44,13.64-12.85,13.64s-12.85-5.08-12.85-13.64Z"/>
    <path class="cls-4" d="M128.96,39.6h23.79v7.93h-15.07v14.67h11.97v7.93h-11.97v17.05h15.07v7.93h-23.79v-55.51Z"/>
  </g>
  <path class="cls-2" d="M159.33,112.83v-11.5c0-3.5,1.84-5.5,5.22-5.5s5.22,2,5.22,5.5v11.5c0,3.5-1.84,5.5-5.22,5.5s-5.22-2-5.22-5.5ZM166.33,113.05v-11.94c0-1.56-.69-2.16-1.78-2.16s-1.78.59-1.78,2.16v11.94c0,1.56.69,2.16,1.78,2.16s1.78-.59,1.78-2.16Z"/>
  <path class="cls-2" d="M173.82,96.14h9.09v3.13h-5.66v6.09h4.44v3.13h-4.44v9.53h-3.44v-21.88Z"/>
  <g>
    <path class="cls-4" d="M193.31,140.82v-28.71c0-8.74,4.37-13.73,12.79-13.73s12.79,4.99,12.79,13.73v4.68h-8.11v-5.23c0-3.9-1.72-5.38-4.45-5.38s-4.45,1.48-4.45,5.38v29.87c0,3.9,1.72,5.3,4.45,5.3s4.45-1.4,4.45-5.3v-10.69h-4.29v-7.8h12.4v17.86c0,8.74-4.37,13.73-12.79,13.73s-12.79-4.99-12.79-13.73Z"/>
    <path class="cls-4" d="M224.12,140.82v-41.65h8.58v42.28c0,3.9,1.64,5.3,4.37,5.3s4.37-1.4,4.37-5.3v-42.28h8.27v41.65c0,8.74-4.37,13.73-12.79,13.73s-12.79-4.99-12.79-13.73Z"/>
    <path class="cls-4" d="M255.79,99.17h8.58v54.6h-8.58v-54.6Z"/>
    <path class="cls-4" d="M270.77,99.17h10.76l8.35,32.68h.16v-32.68h7.64v54.6h-8.81l-10.3-39.86h-.16v39.86h-7.64v-54.6Z"/>
    <path class="cls-4" d="M304.07,99.17h23.4v7.8h-14.82v14.43h11.78v7.8h-11.78v16.77h14.82v7.8h-23.4v-54.6Z"/>
    <path class="cls-4" d="M339.02,99.17h11.62l8.89,54.6h-8.58l-1.56-10.84v.16h-9.75l-1.56,10.69h-7.96l8.89-54.6ZM348.38,135.68l-3.82-26.99h-.16l-3.74,26.99h7.72Z"/>
  </g>
</svg>